<?xml version="1.0" encoding="UTF-8"?>
<svg version="1.1" xmlns="http://www.w3.org/2000/svg" width="48" height="48">
<path d="M0 0 C1.49249268 0.01571045 1.49249268 0.01571045 3.01513672 0.03173828 C4.6296875 0.04140625 4.6296875 0.04140625 6.27685547 0.05126953 C7.40478516 0.06802734 8.53271484 0.08478516 9.69482422 0.10205078 C11.39832031 0.11558594 11.39832031 0.11558594 13.13623047 0.12939453 C15.94763721 0.1530198 18.7586272 0.18596065 21.56982422 0.22705078 C21.56982422 1.21705078 21.56982422 2.20705078 21.56982422 3.22705078 C10.67982422 3.72205078 10.67982422 3.72205078 -0.43017578 4.22705078 C-0.43017578 13.46705078 -0.43017578 22.70705078 -0.43017578 32.22705078 C0.22982422 32.22705078 0.88982422 32.22705078 1.56982422 32.22705078 C1.5645874 31.47496338 1.55935059 30.72287598 1.55395508 29.94799805 C1.53325195 26.56185736 1.52018545 23.17572994 1.50732422 19.78955078 C1.49894531 18.60554688 1.49056641 17.42154297 1.48193359 16.20166016 C1.47871094 15.07695312 1.47548828 13.95224609 1.47216797 12.79345703 C1.46693115 11.75133057 1.46169434 10.7092041 1.45629883 9.63549805 C1.56982422 7.22705078 1.56982422 7.22705078 2.56982422 6.22705078 C4.49461235 6.06898547 6.42481632 5.97591578 8.35498047 5.91064453 C9.52480469 5.86875 10.69462891 5.82685547 11.89990234 5.78369141 C13.13160156 5.744375 14.36330078 5.70505859 15.63232422 5.66455078 C17.48567383 5.59977539 17.48567383 5.59977539 19.37646484 5.53369141 C22.44079757 5.4272088 25.50521495 5.32519654 28.56982422 5.22705078 C27.12228167 3.77950823 25.53019509 3.66971517 23.56982422 3.22705078 C23.56982422 2.23705078 23.56982422 1.24705078 23.56982422 0.22705078 C29.62451172 0.03173828 29.62451172 0.03173828 31.56982422 0.22705078 C34.68561021 3.34283677 35.49136795 6.15941477 35.81274414 10.53271484 C35.80863525 11.75700195 35.80452637 12.98128906 35.80029297 14.24267578 C35.79983475 14.89911072 35.79937653 15.55554565 35.79890442 16.23187256 C35.79589831 17.61016666 35.78806153 18.98845786 35.77563477 20.36669922 C35.75726103 22.48433331 35.7551261 24.60153241 35.75537109 26.71923828 C35.71743096 37.07944404 35.71743096 37.07944404 34.56982422 38.22705078 C30.10112995 38.47065681 25.62670662 38.45562114 21.15209961 38.46728516 C18.90879476 38.47693689 16.66642729 38.50791971 14.42333984 38.53955078 C12.98910049 38.54608623 11.55485457 38.55133457 10.12060547 38.55517578 C8.16634644 38.56919434 8.16634644 38.56919434 6.17260742 38.58349609 C2.14175568 38.18469935 -1.48052318 37.17670338 -4.43017578 34.22705078 C-4.54334862 31.8747676 -4.59434115 29.5529313 -4.59814453 27.19970703 C-4.60147293 26.49559189 -4.60480133 25.79147675 -4.60823059 25.06602478 C-4.61330233 23.57388972 -4.61563884 22.08174328 -4.61547852 20.58959961 C-4.61766337 18.30254471 -4.63581127 16.01597325 -4.65478516 13.72900391 C-4.65771932 12.28173994 -4.65970396 10.83447367 -4.66064453 9.38720703 C-4.66783005 8.70070572 -4.67501556 8.01420441 -4.68241882 7.30690002 C-4.64924027 0.43437748 -4.64924027 0.43437748 0 0 Z " fill="#ED8BAD" transform="translate(9.43017578125,5.77294921875)"/>
<path d="M0 0 C6.0546875 -0.1953125 6.0546875 -0.1953125 8 0 C11.44103566 3.44103566 10.30365487 8.40051695 10.32226562 13.04882812 C10.31900269 14.12886108 10.31900269 14.12886108 10.31567383 15.23071289 C10.31251683 17.42579921 10.33595761 19.61953385 10.36132812 21.81445312 C10.36360143 23.20833163 10.36430447 24.60221377 10.36328125 25.99609375 C10.36626221 27.26638428 10.36924316 28.5366748 10.37231445 29.84545898 C10 33 10 33 8.76904297 34.91943359 C6.47957843 36.31788378 5.006843 36.3440798 2.33203125 36.29296875 C1.43935547 36.28330078 0.54667969 36.27363281 -0.37304688 36.26367188 C-1.76620117 36.2259668 -1.76620117 36.2259668 -3.1875 36.1875 C-4.12787109 36.17396484 -5.06824219 36.16042969 -6.03710938 36.14648438 C-8.35865038 36.11113096 -10.67903653 36.06178674 -13 36 C-13 35.01 -13 34.02 -13 33 C-6.73 32.67 -0.46 32.34 6 32 C6.33 25.73 6.66 19.46 7 13 C-2.24 13 -11.48 13 -21 13 C-21 12.01 -21 11.02 -21 10 C-11.76 10 -2.52 10 7 10 C6.67 8.02 6.34 6.04 6 4 C3.03 3.505 3.03 3.505 0 3 C0 2.01 0 1.02 0 0 Z " fill="#191940" transform="translate(33,6)"/>
<path d="M0 0 C1.49249268 0.01571045 1.49249268 0.01571045 3.01513672 0.03173828 C4.6296875 0.04140625 4.6296875 0.04140625 6.27685547 0.05126953 C7.40478516 0.06802734 8.53271484 0.08478516 9.69482422 0.10205078 C11.39832031 0.11558594 11.39832031 0.11558594 13.13623047 0.12939453 C15.94763721 0.1530198 18.7586272 0.18596065 21.56982422 0.22705078 C21.56982422 1.21705078 21.56982422 2.20705078 21.56982422 3.22705078 C10.67982422 3.72205078 10.67982422 3.72205078 -0.43017578 4.22705078 C-0.43017578 13.46705078 -0.43017578 22.70705078 -0.43017578 32.22705078 C1.54982422 32.55705078 3.52982422 32.88705078 5.56982422 33.22705078 C5.56982422 34.21705078 5.56982422 35.20705078 5.56982422 36.22705078 C-0.48486328 36.42236328 -0.48486328 36.42236328 -2.43017578 36.22705078 C-5.33459237 33.3226342 -4.68885314 31.15947233 -4.69580078 27.10205078 C-4.69771423 26.39935059 -4.69962769 25.69665039 -4.70159912 24.97265625 C-4.70296054 23.48648724 -4.6992671 22.00030633 -4.69091797 20.51416016 C-4.68021732 18.23589433 -4.69081417 15.95841701 -4.70361328 13.68017578 C-4.70229168 12.2374657 -4.69972927 10.79475612 -4.69580078 9.35205078 C-4.69354492 8.03462891 -4.69128906 6.71720703 -4.68896484 5.35986328 C-4.37680081 1.5809115 -3.88705233 0.36316643 0 0 Z " fill="#18183F" transform="translate(9.43017578125,5.77294921875)"/>
<path d="M0 0 C5.43396226 0.60377358 5.43396226 0.60377358 7.875 2.3125 C9 4 9 4 9 8 C6.03 7.505 6.03 7.505 3 7 C3.04125 8.27875 3.0825 9.5575 3.125 10.875 C3.1953125 13.0546875 3.1953125 13.0546875 3 15 C1 17 1 17 -1.5 17.25 C-4 17 -4 17 -6 15 C-5.625 12.875 -5.625 12.875 -5 11 C-3.35 10.67 -1.7 10.34 0 10 C0 6.7 0 3.4 0 0 Z " fill="#231F45" transform="translate(23,20)"/>
</svg>
